<mxfile host="app.diagrams.net" agent="Mozilla/5.0 (Windows NT 10.0; Win64; x64) AppleWebKit/537.36 (KHTML, like Gecko) Chrome/126.0.0.0 Safari/537.36 OPR/112.0.0.0" version="24.7.7">
  <diagram name="Page-1" id="e7e014a7-5840-1c2e-5031-d8a46d1fe8dd">
    <mxGraphModel dx="1073" dy="608" grid="1" gridSize="10" guides="1" tooltips="1" connect="1" arrows="1" fold="1" page="1" pageScale="1" pageWidth="1169" pageHeight="826" background="none" math="0" shadow="0">
      <root>
        <mxCell id="0" />
        <mxCell id="1" parent="0" />
        <mxCell id="74DpVo1cie8Z_NDiLxF8-41" value="" style="ellipse;html=1;shape=startState;fillColor=#000000;strokeColor=#ff0000;" vertex="1" parent="1">
          <mxGeometry x="430" y="130" width="30" height="30" as="geometry" />
        </mxCell>
        <mxCell id="74DpVo1cie8Z_NDiLxF8-42" value="" style="edgeStyle=orthogonalEdgeStyle;html=1;verticalAlign=bottom;endArrow=open;endSize=8;strokeColor=#ff0000;rounded=0;" edge="1" source="74DpVo1cie8Z_NDiLxF8-41" parent="1" target="74DpVo1cie8Z_NDiLxF8-43">
          <mxGeometry relative="1" as="geometry">
            <mxPoint x="445" y="220" as="targetPoint" />
          </mxGeometry>
        </mxCell>
        <mxCell id="74DpVo1cie8Z_NDiLxF8-45" value="" style="edgeStyle=orthogonalEdgeStyle;rounded=0;orthogonalLoop=1;jettySize=auto;html=1;" edge="1" parent="1" source="74DpVo1cie8Z_NDiLxF8-43" target="74DpVo1cie8Z_NDiLxF8-44">
          <mxGeometry relative="1" as="geometry" />
        </mxCell>
        <mxCell id="74DpVo1cie8Z_NDiLxF8-43" value="Acessar tela de login" style="ellipse;whiteSpace=wrap;html=1;" vertex="1" parent="1">
          <mxGeometry x="375" y="220" width="140" height="70" as="geometry" />
        </mxCell>
        <mxCell id="74DpVo1cie8Z_NDiLxF8-47" value="" style="edgeStyle=orthogonalEdgeStyle;rounded=0;orthogonalLoop=1;jettySize=auto;html=1;" edge="1" parent="1" source="74DpVo1cie8Z_NDiLxF8-44" target="74DpVo1cie8Z_NDiLxF8-46">
          <mxGeometry relative="1" as="geometry" />
        </mxCell>
        <mxCell id="74DpVo1cie8Z_NDiLxF8-44" value="Inserir login" style="ellipse;whiteSpace=wrap;html=1;" vertex="1" parent="1">
          <mxGeometry x="375" y="370" width="140" height="70" as="geometry" />
        </mxCell>
        <mxCell id="74DpVo1cie8Z_NDiLxF8-52" value="" style="edgeStyle=orthogonalEdgeStyle;rounded=0;orthogonalLoop=1;jettySize=auto;html=1;" edge="1" parent="1" source="74DpVo1cie8Z_NDiLxF8-46" target="74DpVo1cie8Z_NDiLxF8-51">
          <mxGeometry relative="1" as="geometry" />
        </mxCell>
        <mxCell id="74DpVo1cie8Z_NDiLxF8-46" value="Login e senha corretos?" style="rhombus;whiteSpace=wrap;html=1;" vertex="1" parent="1">
          <mxGeometry x="392.5" y="510" width="105" height="95" as="geometry" />
        </mxCell>
        <mxCell id="74DpVo1cie8Z_NDiLxF8-50" value="Se sim" style="text;html=1;align=center;verticalAlign=middle;resizable=0;points=[];autosize=1;strokeColor=none;fillColor=none;" vertex="1" parent="1">
          <mxGeometry x="340" y="530" width="60" height="30" as="geometry" />
        </mxCell>
        <mxCell id="74DpVo1cie8Z_NDiLxF8-54" value="" style="edgeStyle=orthogonalEdgeStyle;rounded=0;orthogonalLoop=1;jettySize=auto;html=1;" edge="1" parent="1" source="74DpVo1cie8Z_NDiLxF8-46" target="74DpVo1cie8Z_NDiLxF8-53">
          <mxGeometry relative="1" as="geometry" />
        </mxCell>
        <mxCell id="74DpVo1cie8Z_NDiLxF8-51" value="Redirecionar para a tela principal" style="ellipse;whiteSpace=wrap;html=1;" vertex="1" parent="1">
          <mxGeometry x="210" y="640" width="140" height="70" as="geometry" />
        </mxCell>
        <mxCell id="74DpVo1cie8Z_NDiLxF8-59" value="" style="edgeStyle=orthogonalEdgeStyle;rounded=0;orthogonalLoop=1;jettySize=auto;html=1;" edge="1" parent="1" source="74DpVo1cie8Z_NDiLxF8-53" target="74DpVo1cie8Z_NDiLxF8-60">
          <mxGeometry relative="1" as="geometry">
            <mxPoint x="630" y="780" as="targetPoint" />
          </mxGeometry>
        </mxCell>
        <mxCell id="74DpVo1cie8Z_NDiLxF8-53" value="Exibir mensagem de erro" style="ellipse;whiteSpace=wrap;html=1;" vertex="1" parent="1">
          <mxGeometry x="560" y="640" width="140" height="70" as="geometry" />
        </mxCell>
        <mxCell id="74DpVo1cie8Z_NDiLxF8-55" value="Se nÃ£o" style="text;html=1;align=center;verticalAlign=middle;resizable=0;points=[];autosize=1;strokeColor=none;fillColor=none;" vertex="1" parent="1">
          <mxGeometry x="490" y="530" width="60" height="30" as="geometry" />
        </mxCell>
        <mxCell id="74DpVo1cie8Z_NDiLxF8-62" value="" style="edgeStyle=orthogonalEdgeStyle;rounded=0;orthogonalLoop=1;jettySize=auto;html=1;" edge="1" parent="1" source="74DpVo1cie8Z_NDiLxF8-60" target="74DpVo1cie8Z_NDiLxF8-61">
          <mxGeometry relative="1" as="geometry" />
        </mxCell>
        <mxCell id="74DpVo1cie8Z_NDiLxF8-64" style="edgeStyle=orthogonalEdgeStyle;rounded=0;orthogonalLoop=1;jettySize=auto;html=1;" edge="1" parent="1" source="74DpVo1cie8Z_NDiLxF8-60" target="74DpVo1cie8Z_NDiLxF8-63">
          <mxGeometry relative="1" as="geometry" />
        </mxCell>
        <mxCell id="74DpVo1cie8Z_NDiLxF8-60" value="Recuperar senha?" style="rhombus;whiteSpace=wrap;html=1;" vertex="1" parent="1">
          <mxGeometry x="577.5" y="780" width="105" height="95" as="geometry" />
        </mxCell>
        <mxCell id="74DpVo1cie8Z_NDiLxF8-61" value="Exibir mensagem de erro" style="ellipse;whiteSpace=wrap;html=1;" vertex="1" parent="1">
          <mxGeometry x="750" y="930" width="140" height="70" as="geometry" />
        </mxCell>
        <mxCell id="74DpVo1cie8Z_NDiLxF8-63" value="Exibir mensagem de erro" style="ellipse;whiteSpace=wrap;html=1;" vertex="1" parent="1">
          <mxGeometry x="410" y="930" width="140" height="70" as="geometry" />
        </mxCell>
      </root>
    </mxGraphModel>
  </diagram>
</mxfile>
